<svg xmlns="http://www.w3.org/2000/svg" width="2in" height="2in" fill-rule="evenodd" clip-rule="evenodd" image-rendering="optimizeQuality" shape-rendering="geometricPrecision" text-rendering="geometricPrecision" viewBox="0 0 2000 2000" id="bowl"><path d="M1837 911l-45 0c-7,323 -236,593 -540,665l0 140c0,10 -7,17 -17,17l-498 0c-9,0 -17,-7 -17,-17l0 -140c-304,-72 -532,-342 -540,-665l-17 0c-9,0 -16,-8 -16,-17l0 -186c0,-9 7,-17 16,-17l1038 0 403 -403c14,-13 32,-21 52,-21 0,0 0,0 0,0 19,0 37,8 51,21l42 43c14,13 22,32 22,51 0,19 -8,38 -22,51l-258 258 346 0c9,0 16,8 16,17l0 186c0,9 -7,17 -16,17zm-589 -220l196 0 282 -281c7,-8 11,-18 11,-28 0,-11 -4,-20 -11,-28l-43 -42c-7,-8 -17,-12 -27,-12l0 0c-11,0 -21,4 -28,12l-380 379zm-34 893l-1 0c-5,1 -10,2 -15,2l-2 1c-5,1 -10,1 -15,2l-3 0c-5,1 -9,1 -14,2l-4 0c-4,1 -9,1 -13,1l-4 1c-5,0 -10,0 -15,1l-2 0c-5,0 -11,0 -16,0l0 0 0 0 -1 0c-5,0 -11,0 -17,0l0 0 -211 0 -1 0c-6,0 -11,0 -17,0l0 0 0 0 -1 0c-5,0 -10,0 -16,0l-2 0c-5,-1 -10,-1 -15,-1l-3 -1c-5,0 -9,0 -14,-1l-4 0c-5,-1 -9,-1 -13,-2l-4 0c-5,-1 -10,-1 -14,-2l-3 -1c-5,0 -10,-1 -15,-2l-1 0 -5 -1 0 117 466 0 0 -117 -5 1zm-334 -23l1 0 211 0 0 0c6,0 11,0 16,0l1 0c5,0 10,0 15,-1l3 0c4,0 9,0 14,-1l3 0c4,0 9,-1 13,-1l3 0c5,-1 9,-1 14,-2l3 0c4,-1 9,-1 14,-2l2 -1c5,0 10,-1 14,-2l1 0c308,-54 543,-320 551,-640l-1546 0c8,320 244,586 551,640l1 0c5,1 9,2 14,2l3 1c4,1 9,1 14,2l2 0c5,1 10,1 14,2l3 0c4,0 9,1 13,1l4 0c4,1 9,1 13,1l3 0c5,1 10,1 15,1l1 0c5,0 11,0 16,0zm-700 -684l1596 0 44 0 0 -152 -369 0 0 0 0 0 -243 0 -1028 0 0 152z"></path><path fill="#fea535" d="M1213 1584c-5,1 -10,2 -15,2l-2 1c-5,1 -10,1 -15,2l-3 0c-5,1 -9,1 -14,2l-4 0c-4,1 -9,1 -13,1l-4 1c-5,0 -10,0 -15,1l-2 0c-5,0 -11,0 -16,0l0 0 0 0 -1 0c-5,0 -11,0 -17,0l0 0 -211 0 -1 0c-6,0 -11,0 -17,0l0 0 0 0 -1 0c-5,0 -10,0 -16,0l-2 0c-5,-1 -10,-1 -15,-1l-3 -1c-5,0 -9,0 -14,-1l-4 0c-5,-1 -9,-1 -13,-2l-4 0c-5,-1 -10,-1 -14,-2l-3 -1c-5,0 -10,-1 -15,-2l-1 0 -5 -1 0 117 466 0 0 -117 -5 1 -1 0z"></path><path fill="#febb67" d="M1193 1553c5,0 10,-1 14,-2l1 0c308,-54 543,-320 551,-640l-1546 0c8,320 244,586 551,640l1 0c5,1 9,2 14,2l3 1c4,1 9,1 14,2l2 0c5,1 10,1 14,2l3 0c4,0 9,1 13,1l4 0c4,1 9,1 13,1l3 0c5,1 10,1 15,1l1 0c5,0 11,0 16,0l1 0 211 0 0 0c6,0 11,0 16,0l1 0c5,0 10,0 15,-1l3 0c4,0 9,0 14,-1l3 0c4,0 9,-1 13,-1l3 0c5,-1 9,-1 14,-2l3 0c4,-1 9,-1 14,-2l2 -1z"></path><polygon fill="#fea535" points="180 877 1776 877 1820 877 1820 725 1451 725 1451 725 1451 725 1208 725 180 725"></polygon><path fill="#e0d7db" d="M1628 312l-380 379 196 0 282 -281c7,-8 11,-18 11,-28 0,-11 -4,-20 -11,-28l-43 -42c-7,-8 -17,-12 -27,-12 -11,0 -21,4 -28,12z"></path></svg>